# xmcd
#
# Track frame offsets:
#	150
#	12723
#	26393
#	40176
#	54792
#	73209
#	87694
#	103264
#	120517
#	130803
#	142939
#	158272
#	173435
#	189728
#	252301
#
# Disc length: 4299 seconds
#
# Revision: 1
# Processed by: cddbd v1.5.2PL0 Copyright (c) Steve Scherf et al.
# Submitted via: audiograbber 1.83.01
#
DISCID=c410c90f
DTITLE=Various Artist - CDX 13
DYEAR=1991
DGENRE=Country
TTITLE0=Robin Lee - Back To Bein' Blue
TTITLE1=Keith Palmer - Don't Throw Me In The Briarpatch
TTITLE2=Dean Dillon - Don't You Even (Think About Leavin')
TTITLE3=Project HOSS - Let's Open Up Our Hearts
TTITLE4=Vince Gill - Look At Us
TTITLE5=Glen Campbell - Right Down To The Memories
TTITLE6=Tom Kell - Texas Has Nothin' On Me
TTITLE7=Highway 101 - The Blame
TTITLE8=Barbara Mandrell - The Key's In The Mailbox
TTITLE9=Wild Rose - There Goes My Love
TTITLE10=John Anderson - Who Got Our Love
TTITLE11=Billy Dean - You Don't Count The Cost
TTITLE12=Alan Jacksom - Various Station Liners
TTITLE13=John Anderson - Interview
TTITLE14=Sammy Kershaw - Interview
EXTD=
EXTT0=
EXTT1=
EXTT2=
EXTT3=
EXTT4=
EXTT5=
EXTT6=
EXTT7=
EXTT8=
EXTT9=
EXTT10=
EXTT11=
EXTT12=
EXTT13=
EXTT14=
PLAYORDER=
